<svg width="24" height="24" viewBox="0 0 24 24" fill="none" xmlns="http://www.w3.org/2000/svg">
<g clip-path="url(#clip0_19_492)">
<path d="M8.50622 1.10548C6.20417 1.90408 4.21888 3.41986 2.84197 5.43016C1.46505 7.44046 0.769087 9.83934 0.856299 12.2744C0.943511 14.7095 1.8093 17.0524 3.3265 18.9591C4.8437 20.8657 6.93234 22.2356 9.28562 22.8675C11.1935 23.3598 13.1924 23.3814 15.1104 22.9305C16.848 22.5402 18.4544 21.7053 19.7724 20.5077C21.1442 19.2231 22.1399 17.5889 22.6524 15.7809C23.2096 13.8147 23.3087 11.747 22.9422 9.73648H12.2286V14.1807H18.4332C18.3092 14.8895 18.0435 15.566 17.6519 16.1697C17.2604 16.7735 16.751 17.292 16.1544 17.6943C15.3968 18.1955 14.5427 18.5327 13.647 18.6843C12.7487 18.8513 11.8273 18.8513 10.929 18.6843C10.0186 18.496 9.15728 18.1203 8.40002 17.5809C7.18349 16.7197 6.27004 15.4963 5.79002 14.0853C5.30189 12.6478 5.30189 11.0894 5.79002 9.65188C6.13171 8.64427 6.69656 7.72684 7.44242 6.96808C8.29597 6.08382 9.37658 5.45175 10.5657 5.14121C11.7548 4.83068 13.0065 4.85367 14.1834 5.20768C15.1028 5.4899 15.9435 5.983 16.6386 6.64768C17.3382 5.95168 18.0366 5.25388 18.7338 4.55428C19.0938 4.17808 19.4862 3.81988 19.8408 3.43468C18.7798 2.44733 17.5345 1.67906 16.176 1.17388C13.7023 0.275658 10.9956 0.251519 8.50622 1.10548Z" fill="white"/>
<path d="M8.50622 1.10548C10.9954 0.250939 13.7021 0.274442 16.176 1.17208C17.5347 1.68069 18.7795 2.45266 19.839 3.44368C19.479 3.82888 19.0992 4.18888 18.732 4.56328C18.0336 5.26048 17.3358 5.95528 16.6386 6.64768C15.9435 5.983 15.1028 5.4899 14.1834 5.20768C13.0069 4.85243 11.7553 4.82811 10.5658 5.13737C9.37638 5.44664 8.2951 6.07755 7.44062 6.96088C6.69476 7.71964 6.12991 8.63707 5.78822 9.64468L2.05682 6.75568C3.39244 4.10709 5.70497 2.08112 8.50622 1.10548Z" fill="#E33629"/>
<path d="M1.06682 9.61768C1.26738 8.6237 1.60035 7.66112 2.05682 6.75568L5.78822 9.65188C5.30009 11.0894 5.30009 12.6478 5.78822 14.0853C4.54502 15.0453 3.30122 16.0101 2.05682 16.9797C0.914094 14.705 0.565582 12.1134 1.06682 9.61768Z" fill="#F8BD00"/>
<path d="M12.2286 9.73468H22.9422C23.3087 11.7452 23.2096 13.8129 22.6524 15.7791C22.1398 17.5871 21.1442 19.2213 19.7724 20.5059C18.5682 19.5663 17.3586 18.6339 16.1544 17.6943C16.7514 17.2916 17.261 16.7725 17.6526 16.1681C18.0442 15.5637 18.3097 14.8865 18.4332 14.1771H12.2286C12.2268 12.6975 12.2286 11.2161 12.2286 9.73468Z" fill="#587DBD"/>
<path d="M2.05502 16.9797C3.29942 16.0197 4.54322 15.0549 5.78642 14.0853C6.2674 15.4968 7.18215 16.7203 8.40002 17.5809C9.15964 18.1178 10.0228 18.4905 10.9344 18.6753C11.8327 18.8423 12.7541 18.8423 13.6524 18.6753C14.5481 18.5237 15.4022 18.1865 16.1598 17.6853C17.364 18.6249 18.5736 19.5573 19.7778 20.4969C18.46 21.6952 16.8536 22.5307 15.1158 22.9215C13.1978 23.3724 11.1989 23.3508 9.29102 22.8585C7.78209 22.4556 6.37264 21.7453 5.15102 20.7723C3.85801 19.7457 2.80194 18.452 2.05502 16.9797Z" fill="#319F43"/>
</g>
<defs>
<clipPath id="clip0_19_492">
<rect width="23.04" height="23.04" fill="white" transform="translate(0.47998 0.347672)"/>
</clipPath>
</defs>
</svg>
