<svg width="22" height="22" viewBox="0 0 22 22" fill="none" xmlns="http://www.w3.org/2000/svg">
<path d="M8.36322 0.735107V6.71615L3.18375 3.72519L0.546997 8.29381L5.72646 11.2821L0.546997 14.2705L3.18375 18.8391L8.36322 15.8481V21.8292H13.6367V15.8481L18.8162 18.8391L21.453 14.2705L16.2735 11.2821L21.453 8.29381L18.8162 3.72519L13.6367 6.71615V0.735107H8.36322ZM10.1211 2.49294H11.8789V9.7616L18.172 6.12727L19.0509 7.6478L12.7578 11.2821L19.0509 14.9165L18.172 16.437L11.8789 12.8027V20.0713H10.1211V12.8027L3.828 16.437L2.94908 14.9165L9.24214 11.2821L2.94908 7.6478L3.828 6.12727L10.1211 9.7616V2.49294Z" fill="black"/>
</svg>
